<svg xmlns="http://www.w3.org/2000/svg" data-name="Layer 1" viewBox="0 0 80 80">
    <path d="M52,74H28a5.50654,5.50654,0,0,1-5.5-5.5v-57A5.50654,5.50654,0,0,1,28,6H52a5.50654,5.50654,0,0,1,5.5,5.5v57A5.50654,5.50654,0,0,1,52,74ZM28,7a4.50491,4.50491,0,0,0-4.5,4.5v57A4.50491,4.50491,0,0,0,28,73H52a4.50491,4.50491,0,0,0,4.5-4.5v-57A4.50491,4.50491,0,0,0,52,7Z"/>
    <path d="M52,71.5H28a3.00328,3.00328,0,0,1-3-3v-57a3.00328,3.00328,0,0,1,3-3h4a1.001,1.001,0,0,1,1,1,1.001,1.001,0,0,0,1,1H46a1.001,1.001,0,0,0,1-1,1.001,1.001,0,0,1,1-1h4a3.00328,3.00328,0,0,1,3,3v57A3.00328,3.00328,0,0,1,52,71.5ZM28,9.5a2.00229,2.00229,0,0,0-2,2v57a2.00229,2.00229,0,0,0,2,2H52a2.00229,2.00229,0,0,0,2-2v-57a2.00229,2.00229,0,0,0-2-2H48a2.00229,2.00229,0,0,1-2,2H34a2.00229,2.00229,0,0,1-2-2Z"/>
    <path d="M41,9.5H36a.5.5,0,0,1,0-1h5a.5.5,0,0,1,0,1Z"/>
    <circle cx="43.5" cy="9" r=".75"/>
</svg>